nColumns=19
nRows=39
DataType=double
version=3
OpenSimVersion=4.1
endheader
time	ground_force_1_vx	ground_force_1_vy	ground_force_1_vz	ground_force_1_px	ground_force_1_py	ground_force_1_pz	ground_force_1_mx	ground_force_1_my	ground_force_1_mz	ground_force_2_vx	ground_force_2_vy	ground_force_2_vz	ground_force_2_px	ground_force_2_py	ground_force_2_pz	ground_force_2_mx	ground_force_2_my	ground_force_2_mz
0	-26.8623	327.945	16.5203	0.0981432	0.006	-0.200682	0	0.199417	0	0	0	0	0.711714	0	-0.250107	0	0	0
0.01	-38.6122	357.351	16.1191	0.102322	0.006	-0.200076	0	0.151989	0	0	0	0	0.711714	0	-0.250107	0	0	0
0.02	-50.6803	388.866	15.0477	0.107378	0.006	-0.199119	0	0.090536	0	0	0	0	0.711714	0	-0.250107	0	0	0
0.03	-62.5699	421.467	13.1406	0.112528	0.006	-0.197902	0	0.016011	0	0	0	0	0.711714	0	-0.250107	0	0	0
0.04	-73.8741	454.051	10.2786	0.117748	0.006	-0.196438	0	-0.066495	0	0	0	0	0.711714	0	-0.250107	0	0	0
0.05	-84.2872	485.647	6.45177	0.123039	0.006	-0.194752	0	-0.144375	0	0	0	0	0.711714	0	-0.250107	0	0	0
0.06	-93.6173	515.606	1.79481	0.128406	0.006	-0.192883	0	-0.196322	0	0	0	0	0.711714	0	-0.250107	0	0	0
0.07	-101.789	543.645	-3.41979	0.133845	0.006	-0.190889	0	-0.196349	0	0	0	0	0.711714	0	-0.250107	0	0	0
0.08	-108.807	569.77	-8.82748	0.13933	0.006	-0.188838	0	-0.121605	0	0	0	0	0.711714	0	-0.250107	0	0	0
0.09	-114.713	594.165	-14.0431	0.144812	0.006	-0.186803	0	0.040048	0	0	0	0	0.711714	0	-0.250107	0	0	0
0.1	-119.557	617.062	-18.7261	0.150219	0.006	-0.184857	0	0.28667	0	0	0	0	0.711714	0	-0.250107	0	0	0
0.11	-123.376	638.616	-22.6222	0.155468	0.006	-0.183058	0	0.60432	0	0	0	0	0.711714	0	-0.250107	0	0	0
0.12	-126.201	658.824	-25.5829	0.160479	0.006	-0.18145	0	0.971735	0	0	0	0	0.711714	0	-0.250107	0	0	0
0.13	-128.061	677.512	-27.5708	0.165185	0.006	-0.180057	0	1.3644	0	0	0	0	0.711714	0	-0.250107	0	0	0
0.14	-128.986	694.389	-28.6511	0.169538	0.006	-0.178886	0	1.75809	0	0	0	0	0.711714	0	-0.250107	0	0	0
0.15	-129.014	709.115	-28.9608	0.173515	0.006	-0.17793	0	2.13234	0	0	0	0	0.711714	0	-0.250107	0	0	0
0.16	-128.184	721.37	-28.6705	0.17711	0.006	-0.177173	0	2.47197	0	0	0	0	0.711714	0	-0.250107	0	0	0
0.17	-126.546	730.895	-27.9496	0.180333	0.006	-0.176597	0	2.76652	0	0	0	0	0.711714	0	-0.250107	0	0	0
0.18	-124.163	737.54	-26.9369	0.183199	0.006	-0.176186	0	3.0089	0	0	0	0	0.711714	0	-0.250107	0	0	0
0.19	-121.107	741.29	-25.7231	0.185733	0.006	-0.175927	0	3.19399	0	0	0	0	0.711714	0	-0.250107	0	0	0
0.2	-117.457	742.283	-24.3497	0.187958	0.006	-0.175811	0	3.31772	0	0	0	0	0.711714	0	-0.250107	0	0	0
0.21	-113.296	740.812	-22.8211	0.189896	0.006	-0.175832	0	3.37698	0	0	0	0	0.711714	0	-0.250107	0	0	0
0.22	-108.716	737.311	-21.1229	0.191572	0.006	-0.175983	0	3.37047	0	0	0	0	0.711714	0	-0.250107	0	0	0
0.23	-103.814	732.316	-19.2504	0.19301	0.006	-0.176255	0	3.29942	0	0	0	0	0.711714	0	-0.250107	0	0	0
0.24	-98.6898	726.414	-17.2298	0.19424	0.006	-0.176631	0	3.16785	0	0	0	0	0.711714	0	-0.250107	0	0	0
0.25	-93.4477	720.182	-15.1233	0.195296	0.006	-0.177084	0	2.98271	0	0	0	0	0.711714	0	-0.250107	0	0	0
0.26	-88.1894	714.14	-13.0215	0.196223	0.006	-0.177581	0	2.75306	0	0	0	0	0.711714	0	-0.250107	0	0	0
0.27	-83.0119	708.716	-11.0303	0.19707	0.006	-0.17808	0	2.48906	0	0	0	0	0.711714	0	-0.250107	0	0	0
0.28	-78.0034	704.219	-9.25365	0.197889	0.006	-0.17854	0	2.201	0	0	0	0	0.711714	0	-0.250107	0	0	0
0.29	-73.239	700.838	-7.77912	0.198731	0.006	-0.17892	0	1.89853	0	0	0	0	0.711714	0	-0.250107	0	0	0
0.3	-68.7752	698.64	-6.66824	0.199637	0.006	-0.179186	0	1.59016	0	0	0	0	0.711714	0	-0.250107	0	0	0
0.31	-64.6449	697.588	-5.95096	0.200634	0.006	-0.179317	0	1.28291	0	0	0	0	0.711714	0	-0.250107	0	0	0
0.32	-60.8506	697.578	-5.62319	0.201733	0.006	-0.179304	0	0.982293	0	0	0	0	0.711714	0	-0.250107	0	0	0
0.33	-57.3665	698.476	-5.65162	0.20293	0.006	-0.179152	0	0.692368	0	0	0	0	0.711714	0	-0.250107	0	0	0
0.34	-54.1491	700.139	-5.98359	0.204208	0.006	-0.178879	0	0.415663	0	0	0	0	0.711714	0	-0.250107	0	0	0
0.35	-51.145	702.407	-6.55778	0.205544	0.006	-0.178509	0	0.153077	0	0	0	0	0.711714	0	-0.250107	0	0	0
0.36	-48.2947	705.106	-7.31279	0.206913	0.006	-0.17807	0	-0.096008	0	0	0	0	0.711714	0	-0.250107	0	0	0
0.37	-45.5354	708.049	-8.19234	0.20829	0.006	-0.177594	0	-0.333581	0	0	0	0	0.711714	0	-0.250107	0	0	0
0.38	-42.8062	711.053	-9.14611	0.209654	0.006	-0.177113	0	-0.562767	0	0	0	0	0.711714	0	-0.250107	0	0	0
